<?xml version="1.0" encoding="utf-8"?>
<!-- Generator: Adobe Illustrator 16.0.0, SVG Export Plug-In . SVG Version: 6.00 Build 0)  -->
<!DOCTYPE svg PUBLIC "-//W3C//DTD SVG 1.1//EN" "http://www.w3.org/Graphics/SVG/1.1/DTD/svg11.dtd">
<svg version="1.1" id="Layer_1" xmlns="http://www.w3.org/2000/svg" xmlns:xlink="http://www.w3.org/1999/xlink" x="0px" y="0px"
	 width="711.205px" height="600.281px" viewBox="0 0 711.205 600.281" enable-background="new 0 0 711.205 600.281"
	 xml:space="preserve">
<path fill="#FBAE25" d="M400.58,0.052c40.789-0.216,76.186,5.438,110.693,15.829c21.438,6.455,70.643,34.736,88.707,48.008
	c12.479,9.167,56.098,60.651,83.649,110.509c11.706,21.184,21.042,43.341,25.49,67.34c4.405,23.773,1.934,46.59-8.451,68.549
	c-8.636,18.259-18.013,35.989-31.156,51.55c-14.151,16.752-32.06,28.366-51.041,38.686c-31.725,17.242-64.023,33.541-94.922,52.162
	c-35.491,21.389-69.682,44.93-104.506,67.432c-32.454,20.97-65.287,41.244-101.319,55.763
	c-28.713,11.571-58.444,18.891-89.232,21.616c-16.71,1.48-33.511,2.927-50.257,2.775c-33.602-0.303-66.631-4.684-97.742-18.551
	c-36.97-16.48-62.275-43.453-74.894-82.277c-4.825-14.844-6.235-29.838-5.354-45.213c3-52.326,19.7-101.146,38.481-149.398
	c14.375-36.932,30.908-72.895,49.533-107.879c1.773-3.331,4.173-6.433,6.738-9.221c42.293-45.973,87.61-88.63,138.664-124.848
	c32.024-22.72,65.588-42.77,103.564-54.032C359.334,2.295,382.092-0.421,400.58,0.052z"/>
</svg>
