<?xml version="1.0" encoding="utf-8"?>
<!-- Generator: Adobe Illustrator 16.0.0, SVG Export Plug-In . SVG Version: 6.00 Build 0)  -->
<!DOCTYPE svg PUBLIC "-//W3C//DTD SVG 1.1//EN" "http://www.w3.org/Graphics/SVG/1.1/DTD/svg11.dtd">
<svg version="1.1" id="Layer_1" xmlns="http://www.w3.org/2000/svg" xmlns:xlink="http://www.w3.org/1999/xlink" x="0px" y="0px"
	 width="222.496px" height="54.829px" viewBox="-59.286 81.542 222.496 54.829"
	 enable-background="new -59.286 81.542 222.496 54.829" xml:space="preserve">
<g>
	<path fill="#FBAE25" d="M-58.846,106.198l0.337,0.104c2.001,0.614,4.268,1.312,6.448,1.501c3.133,0.356,11.295,0.683,19.187,1.003
		c7.091,0.285,13.787,0.555,16.527,0.831c6.785,0.811,13.707,1.512,20.401,2.189c5.332,0.541,10.845,1.1,16.313,1.714
		c3.287,0.371,9.94,1.434,16.374,2.463c6.617,1.059,13.458,2.151,16.374,2.446c4.53,0.521,9.041,1.467,13.402,2.381
		c6.425,1.346,13.07,2.737,19.958,2.821c5.824,0.114,57.595,7.05,69.995,11.301l-0.487,1.418
		c-11.867-4.066-63.843-11.106-69.533-11.221c-7.027-0.086-13.745-1.492-20.24-2.852c-4.329-0.907-8.804-1.845-13.257-2.358
		c-2.948-0.296-9.505-1.347-16.449-2.456c-6.416-1.026-13.052-2.088-16.304-2.453c-5.459-0.615-10.968-1.172-16.297-1.713
		c-6.701-0.678-13.629-1.381-20.413-2.191c-2.683-0.271-9.358-0.538-16.424-0.823c-7.919-0.319-16.109-0.649-19.275-1.009
		c-2.319-0.202-4.669-0.922-6.739-1.56l-0.337-0.103L-58.846,106.198z"/>
</g>
<g>
	<path fill="#FBAE25" d="M-53.368,93.539l0.318,0.098c2.004,0.619,4.278,1.317,6.467,1.508c3.133,0.355,11.292,0.684,19.184,1.001
		c7.092,0.287,13.79,0.556,16.53,0.833c6.771,0.809,13.682,1.508,20.365,2.187c5.343,0.54,10.87,1.101,16.349,1.719
		c3.292,0.369,9.954,1.434,16.396,2.465c6.607,1.055,13.438,2.149,16.351,2.442c4.532,0.523,9.041,1.467,13.403,2.382
		c6.424,1.347,13.069,2.738,19.957,2.82c5.826,0.118,57.603,7.056,69.994,11.301l-0.486,1.419
		c-11.86-4.065-63.842-11.104-69.529-11.222c-7.03-0.083-13.745-1.49-20.241-2.851c-4.329-0.907-8.804-1.846-13.258-2.358
		c-2.943-0.297-9.491-1.345-16.424-2.452c-6.428-1.028-13.071-2.09-16.329-2.457c-5.471-0.615-10.994-1.176-16.334-1.717
		c-6.689-0.678-13.606-1.377-20.376-2.188c-2.683-0.271-9.359-0.539-16.427-0.824c-7.918-0.319-16.106-0.649-19.273-1.008
		c-2.328-0.205-4.682-0.926-6.759-1.565l-0.318-0.099L-53.368,93.539z"/>
</g>
<g>
	<path fill="#FBAE25" d="M-53.184,81.542l0.34,0.087c2.025,0.523,4.323,1.118,6.511,1.209c3.147,0.215,11.316,0.174,19.218,0.136
		c7.093-0.034,13.794-0.066,16.543,0.085C-3.76,83.563,3.184,83.952,9.9,84.328c5.354,0.3,10.888,0.608,16.381,0.978
		c3.3,0.223,9.99,0.983,16.461,1.721c6.659,0.759,13.546,1.546,16.474,1.707c4.55,0.318,9.098,1.057,13.495,1.774
		c6.479,1.056,13.182,2.147,20.066,1.918c5.826-0.145,57.861,4.451,70.432,8.135l-0.422,1.438
		c-12.028-3.524-64.275-8.216-69.966-8.075c-7.026,0.235-13.8-0.869-20.351-1.935c-4.364-0.711-8.88-1.447-13.35-1.758
		c-2.958-0.163-9.56-0.917-16.546-1.713c-6.455-0.736-13.129-1.497-16.393-1.715c-5.483-0.368-11.015-0.678-16.365-0.977
		c-6.721-0.377-13.674-0.766-20.485-1.269c-2.691-0.15-9.37-0.118-16.439-0.084c-7.928,0.039-16.125,0.079-19.306-0.138
		c-2.328-0.097-4.708-0.712-6.806-1.256l-0.338-0.087L-53.184,81.542z"/>
</g>
<line fill="none" stroke="#FAAE24" stroke-miterlimit="10" x1="-527.034" y1="-122.344" x2="-351.862" y2="52.828"/>
</svg>
