<?xml version="1.0" encoding="utf-8"?>
<!-- Generator: Adobe Illustrator 16.0.0, SVG Export Plug-In . SVG Version: 6.00 Build 0)  -->
<!DOCTYPE svg PUBLIC "-//W3C//DTD SVG 1.1//EN" "http://www.w3.org/Graphics/SVG/1.1/DTD/svg11.dtd">
<svg version="1.1" id="Layer_1" xmlns="http://www.w3.org/2000/svg" xmlns:xlink="http://www.w3.org/1999/xlink" x="0px" y="0px"
	 width="32px" height="34.461px" viewBox="880 878.769 32 34.461" enable-background="new 880 878.769 32 34.461"
	 xml:space="preserve">
<path d="M892.308,881.231c-0.679,0-1.26,0.24-1.74,0.721c-0.481,0.48-0.721,1.061-0.721,1.74v17.23l-2.904-3.885
	c-0.526-0.692-1.211-1.038-2.058-1.038c-0.667,0-1.237,0.244-1.712,0.73c-0.474,0.487-0.711,1.064-0.711,1.731
	c0,0.551,0.167,1.045,0.5,1.48l7.385,9.846c0.487,0.654,1.141,0.981,1.961,0.981h13.808c0.282,0,0.535-0.087,0.76-0.26
	s0.369-0.395,0.433-0.664l1.77-7.076c0.308-1.231,0.462-2.475,0.462-3.731v-4.173c0-0.525-0.18-0.98-0.539-1.365
	s-0.795-0.577-1.308-0.577s-0.948,0.18-1.308,0.539s-0.539,0.795-0.539,1.308h-0.615v-1.173c0-0.615-0.205-1.138-0.615-1.567
	c-0.41-0.429-0.923-0.644-1.538-0.644c-0.59,0-1.097,0.211-1.52,0.634c-0.423,0.423-0.635,0.93-0.635,1.52v1.23h-0.615v-1.73
	c0-0.705-0.237-1.311-0.712-1.817s-1.057-0.76-1.75-0.76c-0.68,0-1.26,0.241-1.74,0.721c-0.481,0.481-0.721,1.061-0.721,1.74v1.846
	h-0.616v-10.961c0-0.705-0.237-1.311-0.711-1.817C893.583,881.484,893,881.231,892.308,881.231z M892.308,878.769
	c1.372,0,2.535,0.497,3.49,1.491c0.956,0.993,1.433,2.176,1.433,3.548v4.231c0.282-0.026,0.487-0.039,0.615-0.039
	c1.27,0,2.379,0.442,3.327,1.327c0.603-0.27,1.237-0.404,1.904-0.404c1.448,0,2.628,0.558,3.538,1.673
	c0.346-0.09,0.705-0.135,1.077-0.135c1.205,0,2.224,0.433,3.058,1.298c0.834,0.865,1.25,1.9,1.25,3.105v4.173
	c0,1.487-0.18,2.93-0.539,4.327l-1.769,7.077c-0.205,0.82-0.642,1.49-1.308,2.01c-0.667,0.519-1.424,0.778-2.27,0.778h-13.808
	c-0.769,0-1.503-0.176-2.202-0.528s-1.279-0.83-1.741-1.433l-7.384-9.847c-0.654-0.872-0.981-1.858-0.981-2.961
	c0-1.347,0.478-2.503,1.433-3.472c0.955-0.968,2.106-1.452,3.452-1.452c0.91,0,1.743,0.224,2.5,0.673v-10.519
	c0-1.359,0.48-2.52,1.442-3.481C889.789,879.25,890.949,878.769,892.308,878.769z M894.769,905.846v-7.384h-0.615v7.384H894.769z
	 M899.692,905.846v-7.384h-0.615v7.384H899.692z M904.615,905.846v-7.384H904v7.384H904.615z"/>
</svg>
