<?xml version="1.0" encoding="utf-8"?>
<!-- Generator: Adobe Illustrator 16.0.0, SVG Export Plug-In . SVG Version: 6.00 Build 0)  -->
<!DOCTYPE svg PUBLIC "-//W3C//DTD SVG 1.1//EN" "http://www.w3.org/Graphics/SVG/1.1/DTD/svg11.dtd">
<svg version="1.1" id="Layer_1" xmlns="http://www.w3.org/2000/svg" xmlns:xlink="http://www.w3.org/1999/xlink" x="0px" y="0px"
	 width="32px" height="34.461px" viewBox="0 0 32 34.461" enable-background="new 0 0 32 34.461" xml:space="preserve">
<path fill="#FB511D" d="M12.309,2.462c-0.679,0-1.26,0.24-1.739,0.721c-0.481,0.48-0.722,1.063-0.722,1.74v17.23l-2.903-3.885
	c-0.526-0.691-1.211-1.039-2.059-1.039c-0.667,0-1.236,0.244-1.712,0.73c-0.474,0.488-0.711,1.064-0.711,1.73
	c0,0.553,0.167,1.047,0.5,1.48l7.385,9.846c0.487,0.654,1.142,0.982,1.961,0.982h13.809c0.282,0,0.535-0.088,0.76-0.26
	c0.226-0.174,0.369-0.396,0.433-0.664l1.771-7.076c0.308-1.232,0.462-2.477,0.462-3.732v-4.172c0-0.525-0.18-0.98-0.539-1.365
	s-0.795-0.576-1.308-0.576c-0.514,0-0.948,0.18-1.309,0.537c-0.359,0.359-0.539,0.797-0.539,1.309h-0.614v-1.172
	c0-0.615-0.205-1.139-0.615-1.568c-0.41-0.428-0.923-0.643-1.538-0.643c-0.59,0-1.097,0.211-1.521,0.633
	c-0.423,0.424-0.635,0.93-0.635,1.52v1.23H20.31v-1.73c0-0.705-0.236-1.311-0.712-1.816c-0.475-0.506-1.057-0.76-1.75-0.76
	c-0.68,0-1.26,0.24-1.739,0.721c-0.481,0.48-0.722,1.061-0.722,1.74v1.846h-0.616V5.038c0-0.705-0.236-1.311-0.711-1.816
	C13.584,2.716,13.001,2.462,12.309,2.462z M12.309,0.001c1.372,0,2.535,0.496,3.49,1.49c0.956,0.994,1.433,2.176,1.433,3.549v4.23
	c0.282-0.025,0.487-0.039,0.615-0.039c1.271,0,2.379,0.441,3.327,1.326c0.604-0.27,1.237-0.402,1.904-0.402
	c1.448,0,2.628,0.557,3.538,1.672c0.346-0.09,0.705-0.135,1.077-0.135c1.205,0,2.224,0.434,3.058,1.299
	c0.834,0.863,1.25,1.898,1.25,3.104v4.174c0,1.486-0.18,2.93-0.539,4.326l-1.769,7.078c-0.205,0.82-0.643,1.49-1.309,2.01
	c-0.667,0.52-1.424,0.777-2.27,0.777H12.307c-0.769,0-1.503-0.176-2.202-0.527c-0.698-0.352-1.278-0.83-1.74-1.434l-7.385-9.846
	c-0.653-0.873-0.98-1.859-0.98-2.961c0-1.348,0.478-2.504,1.433-3.473s2.106-1.453,3.452-1.453c0.91,0,1.743,0.225,2.5,0.674V4.921
	c0-1.359,0.48-2.52,1.442-3.48C9.79,0.481,10.95,0.001,12.309,0.001z M14.77,27.077v-7.383h-0.614v7.383H14.77z M19.693,27.077
	v-7.383h-0.615v7.383H19.693z M24.616,27.077v-7.383h-0.615v7.383H24.616z"/>
</svg>
