<?xml version="1.0" encoding="utf-8"?>
<!-- Generator: Adobe Illustrator 16.0.0, SVG Export Plug-In . SVG Version: 6.00 Build 0)  -->
<!DOCTYPE svg PUBLIC "-//W3C//DTD SVG 1.1//EN" "http://www.w3.org/Graphics/SVG/1.1/DTD/svg11.dtd">
<svg version="1.1" id="Layer_1" xmlns="http://www.w3.org/2000/svg" xmlns:xlink="http://www.w3.org/1999/xlink" x="0px" y="0px"
	 width="16px" height="17.229px" viewBox="8 8.616 16 17.229" enable-background="new 8 8.616 16 17.229" xml:space="preserve">
<path fill="#FB511D" d="M14.154,9.847c-0.339,0-0.63,0.12-0.87,0.36c-0.241,0.24-0.361,0.531-0.361,0.87v8.614l-1.451-1.942
	c-0.263-0.345-0.605-0.519-1.029-0.519c-0.333,0-0.618,0.122-0.856,0.365c-0.237,0.244-0.355,0.532-0.355,0.865
	c0,0.276,0.083,0.523,0.25,0.74l3.692,4.923c0.244,0.327,0.571,0.491,0.98,0.491h6.904c0.141,0,0.268-0.044,0.38-0.13
	c0.112-0.087,0.185-0.198,0.216-0.332l0.886-3.538c0.153-0.616,0.23-1.238,0.23-1.866v-2.085c0-0.263-0.09-0.49-0.27-0.683
	s-0.397-0.288-0.653-0.288c-0.257,0-0.475,0.09-0.654,0.269c-0.18,0.18-0.27,0.398-0.27,0.654h-0.308v-0.586
	c0-0.308-0.103-0.569-0.308-0.784c-0.205-0.214-0.461-0.321-0.769-0.321c-0.295,0-0.549,0.105-0.761,0.316
	c-0.211,0.212-0.317,0.465-0.317,0.76v0.615h-0.308V15.75c0-0.353-0.118-0.655-0.355-0.908s-0.528-0.38-0.875-0.38
	c-0.34,0-0.63,0.12-0.87,0.36c-0.241,0.24-0.361,0.53-0.361,0.87v0.923h-0.308v-5.48c0-0.353-0.118-0.655-0.355-0.908
	C14.792,9.974,14.5,9.847,14.154,9.847z M14.154,8.616c0.686,0,1.268,0.248,1.745,0.745c0.478,0.497,0.716,1.088,0.716,1.774v2.115
	c0.142-0.012,0.244-0.019,0.308-0.019c0.636,0,1.189,0.22,1.664,0.663c0.302-0.135,0.618-0.201,0.952-0.201
	c0.724,0,1.313,0.278,1.769,0.836c0.173-0.045,0.353-0.067,0.539-0.067c0.603,0,1.111,0.217,1.528,0.649
	C23.792,15.542,24,16.06,24,16.663v2.086c0,0.743-0.09,1.465-0.27,2.163l-0.884,3.539c-0.103,0.41-0.321,0.745-0.654,1.005
	c-0.334,0.26-0.712,0.389-1.135,0.389h-6.904c-0.384,0-0.751-0.088-1.101-0.264c-0.349-0.176-0.639-0.415-0.87-0.717L8.49,19.941
	C8.164,19.505,8,19.012,8,18.461c0-0.674,0.239-1.251,0.716-1.736s1.053-0.727,1.726-0.727c0.455,0,0.872,0.112,1.25,0.337v-5.259
	c0-0.68,0.24-1.26,0.721-1.74C12.895,8.856,13.475,8.616,14.154,8.616z M15.385,22.153v-3.691h-0.307v3.691H15.385z M17.847,22.153
	v-3.691h-0.308v3.691H17.847z M20.308,22.153v-3.691H20v3.691H20.308z"/>
</svg>
