<?xml version="1.0" encoding="utf-8"?>
<!-- Generator: Adobe Illustrator 16.0.0, SVG Export Plug-In . SVG Version: 6.00 Build 0)  -->
<!DOCTYPE svg PUBLIC "-//W3C//DTD SVG 1.1//EN" "http://www.w3.org/Graphics/SVG/1.1/DTD/svg11.dtd">
<svg version="1.1" id="regular" xmlns="http://www.w3.org/2000/svg" xmlns:xlink="http://www.w3.org/1999/xlink" x="0px" y="0px"
	 width="512px" height="512px" viewBox="0 0 512 512" enable-background="new 0 0 512 512" xml:space="preserve">
<path fill="#FFFFFF" d="M426.411,349.44c6.079-5.376,10.837-12.139,13.524-20.054l26.838-78.997
	c8.384-24.661-4.8-51.584-29.376-60.011c-10.219-3.498-21.034-3.178-31.062,0.427c0.385-2.666,0.662-5.29,0.662-7.851
	c0-24.768-15.639-46.698-38.827-54.57c-10.325-3.563-21.185-3.968-31.573-1.558l12.479-36.735c2.325-7.04,3.521-14.4,3.521-21.931
	c0-29.078-18.432-55.04-45.995-64.619c-35.349-11.968-74.09,7.104-86.314,42.581l-23.659,69.803l-21.077-67.883
	C164.374,11.606,124.458-8.299,90.368,3.072c-35.669,11.393-55.723,49.75-44.672,85.525l37.525,120.107h-3.754
	c-8.832,0-16,7.168-16,16v104.341c0,100.885,81.707,182.934,182.144,182.934C338.305,511.979,416.171,441.152,426.411,349.44
	L426.411,349.44z M427.029,220.651c7.936,2.709,12.16,11.456,9.451,19.456l-26.859,79.019c-2.688,7.894-11.157,12.245-19.199,9.515
	c-7.937-2.71-12.182-11.456-9.451-19.456l26.838-78.997C410.539,222.165,419.136,217.942,427.029,220.651L427.029,220.651z
	 M357.824,158.677c12.224,4.139,20.501,17.664,15.744,32.662l-40.342,118.463c-4.48,13.525-19.008,20.587-32.043,16.043
	c-8.234-2.88-14.207-9.515-16.447-17.408c0.426-0.405,0.938-0.704,1.344-1.13c11.029-10.752,17.088-25.28,17.088-40.875
	c0-6.187-1.237-12.032-3.029-17.621c26.709-71.872,22.613-81.344,38.037-88.96C344.277,156.843,351.254,156.416,357.824,158.677z
	 M76.267,79.104c-5.888-19.029,4.821-39.467,24.064-45.61c17.067-5.718,38.613,4.267,44.651,24l35.712,114.986
	c4.693,14.934,25.834,13.931,30.443,0.384L250.56,56.49c6.485-18.795,27.008-28.992,45.674-22.656
	c19.029,6.613,28.715,27.393,22.507,46.08c-1.898,5.611-31.36,92.288-29.567,87.04l-16.576,48.79
	c-8.086-4.353-17.174-7.062-26.987-7.062H116.608L76.267,79.104z M245.611,479.979c-82.795,0-150.144-67.712-150.144-150.934
	v-88.341h150.144c14.08,0,25.536,11.541,25.536,25.749c0,6.912-2.645,13.291-7.766,18.282c-4.629,4.801-10.965,7.445-17.77,7.445
	c-15.36,0-75.861,0-72.683,0c-8.832,0-16,7.168-16,16s7.168,16,16,16h4.97c48.555,0,40.64,54.912,41.344,57.046
	c0,8.832,7.168,16,16,16s16-7.168,16-16c-0.896-8.427,4.395-31.787-12.928-57.046c5.675-0.171,9.451,0.491,17.728-1.023
	c6.166,14.997,18.475,27.242,34.603,32.917c22.485,7.808,47.872,1.194,63.616-19.051c5.461,9.898,14.314,17.963,25.813,21.888
	c3.969,1.365,8.021,2.027,12.097,2.305C377.322,429.269,316.779,479.979,245.611,479.979L245.611,479.979z"/>
</svg>
